<?xml version="1.0" encoding="UTF-8" standalone="no"?>
<!-- Created with Inkscape (http://www.inkscape.org/) -->

<svg
   width="3924.5015"
   height="3313.2229"
   viewBox="0 0 1038.3577 876.62356"
   version="1.1"
   id="svg1"
   xml:space="preserve"
   xmlns="http://www.w3.org/2000/svg"
   xmlns:svg="http://www.w3.org/2000/svg"><defs
     id="defs1" /><path
     style="opacity:1;fill:#ffdb00;fill-opacity:1;fill-rule:evenodd;stroke-width:1.32292;stroke-linecap:round;stroke-linejoin:round;paint-order:markers stroke fill"
     id="path1"
     d="M 254.66146,115.75522 25.253643,33.041209 -172.93899,175.13007 l 7.77478,-243.739838 -196.37943,-144.584522 234.2129,-67.9255 76.823473,-231.44701 136.976754,201.75957 243.858943,1.54241 -149.55661,192.61977 z"
     transform="translate(361.54365,701.49347)" /><path
     style="opacity:1;fill:#ff7900;fill-opacity:1;fill-rule:evenodd;stroke-width:1.32292;stroke-linecap:round;stroke-linejoin:round;paint-order:markers stroke fill"
     id="path2"
     d="m 502.70831,-304.27081 -81.89602,-113.83259 -140.20068,2.93054 82.95397,-113.06395 -46.1115,-132.43318 133.16439,43.95523 111.7022,-84.77875 -0.65385,140.22978 115.14726,80.03703 -133.56849,42.71154 z"
     transform="translate(361.54365,701.49347)" /><path
     style="opacity:1;fill:#e2ffa4;fill-opacity:1;fill-rule:evenodd;stroke-width:1.32292;stroke-linecap:round;stroke-linejoin:round;paint-order:markers stroke fill"
     id="path3"
     d="m 396.87499,-11.575513 -96.51822,-44.209251 -91.13619,54.4465119 12.21972,-105.4556979 -79.94434,-69.85077 104.07043,-20.96595 41.72787,-97.61666 52.09934,92.49802 105.73358,9.52036 -71.87127,78.13287 z"
     transform="translate(485.56709,757.27823)" /></svg>
